<svg xmlns="http://www.w3.org/2000/svg" xmlns:xlink="http://www.w3.org/1999/xlink" width="150" zoomAndPan="magnify" viewBox="0 0 112.5 48.75" height="65" preserveAspectRatio="xMidYMid meet" version="1.2"><defs><clipPath id="cba36db797"><path d="M 72.566406 4.851562 L 106.890625 4.851562 L 106.890625 43.652344 L 72.566406 43.652344 Z M 72.566406 4.851562 "/></clipPath><clipPath id="c6a638a170"><rect x="0" width="68" y="0" height="38"/></clipPath><clipPath id="a3cf3e1615"><path d="M 1 2 L 111.964844 2 L 111.964844 4 L 1 4 Z M 1 2 "/></clipPath><clipPath id="764bec035d"><path d="M 0.0390625 44 L 111.964844 44 L 111.964844 46 L 0.0390625 46 Z M 0.0390625 44 "/></clipPath><clipPath id="5eb10341db"><path d="M 0.0390625 0 L 6 0 L 6 48.5 L 0.0390625 48.5 Z M 0.0390625 0 "/></clipPath><clipPath id="898c4a2d42"><path d="M 106 0 L 111.964844 0 L 111.964844 48.5 L 106 48.5 Z M 106 0 "/></clipPath></defs><g id="509f069cc4"><g clip-rule="nonzero" clip-path="url(#cba36db797)"><path style=" stroke:none;fill-rule:nonzero;fill:#e44d26;fill-opacity:1;" d="M 103.347656 4.851562 L 81.941406 4.851562 C 80.09375 4.851562 78.597656 6.347656 78.597656 8.195312 L 78.597656 23.582031 L 73.246094 23.582031 C 72.878906 23.582031 72.574219 23.882812 72.574219 24.25 L 72.574219 39.972656 C 72.574219 42 74.226562 43.652344 76.253906 43.652344 L 103.347656 43.652344 C 105.195312 43.652344 106.695312 42.152344 106.695312 40.304688 L 106.695312 8.195312 C 106.695312 6.347656 105.195312 4.851562 103.347656 4.851562 Z M 73.914062 39.972656 L 73.914062 24.917969 L 78.597656 24.917969 L 78.597656 39.972656 C 78.597656 41.261719 77.546875 42.3125 76.253906 42.3125 C 74.964844 42.3125 73.914062 41.261719 73.914062 39.972656 Z M 105.355469 40.304688 C 105.355469 41.410156 104.453125 42.3125 103.347656 42.3125 L 79.933594 42.3125 L 79.933594 8.195312 C 79.933594 7.089844 80.839844 6.1875 81.941406 6.1875 L 103.347656 6.1875 C 104.453125 6.1875 105.355469 7.089844 105.355469 8.195312 Z M 105.355469 40.304688 "/></g><path style=" stroke:none;fill-rule:nonzero;fill:#e44d26;fill-opacity:1;" d="M 86.175781 17.789062 C 87.828125 17.789062 89.40625 17.078125 90.503906 15.839844 C 90.558594 15.78125 90.597656 15.714844 90.625 15.648438 C 90.679688 15.519531 90.683594 15.375 90.652344 15.238281 C 90.316406 13.855469 89.375 12.757812 88.148438 12.175781 C 88.585938 11.699219 88.859375 11.070312 88.859375 10.375 C 88.859375 8.898438 87.65625 7.691406 86.175781 7.691406 C 84.699219 7.691406 83.492188 8.898438 83.492188 10.375 C 83.492188 11.070312 83.769531 11.699219 84.203125 12.175781 C 82.992188 12.75 82.054688 13.828125 81.714844 15.191406 C 81.667969 15.339844 81.675781 15.5 81.734375 15.648438 C 81.769531 15.726562 81.816406 15.800781 81.882812 15.867188 C 82.964844 17.09375 84.53125 17.789062 86.175781 17.789062 Z M 84.832031 10.375 C 84.832031 9.632812 85.433594 9.03125 86.175781 9.03125 C 86.917969 9.03125 87.519531 9.632812 87.519531 10.375 C 87.519531 11.117188 86.917969 11.71875 86.183594 11.71875 C 86.183594 11.71875 86.175781 11.71875 86.175781 11.71875 C 86.175781 11.71875 86.167969 11.71875 86.167969 11.71875 C 85.433594 11.71875 84.832031 11.117188 84.832031 10.375 Z M 86.167969 13.058594 C 86.167969 13.058594 86.175781 13.066406 86.167969 13.058594 C 86.175781 13.058594 86.175781 13.058594 86.183594 13.058594 C 87.574219 13.058594 88.792969 13.929688 89.253906 15.210938 C 88.429688 16.003906 87.328125 16.445312 86.175781 16.445312 C 85.027344 16.445312 83.921875 15.996094 83.105469 15.210938 C 83.566406 13.933594 84.777344 13.066406 86.167969 13.058594 Z M 86.167969 13.058594 "/><path style=" stroke:none;fill-rule:nonzero;fill:#e44d26;fill-opacity:1;" d="M 93.339844 11.042969 L 96.78125 11.042969 C 97.148438 11.042969 97.449219 10.742188 97.449219 10.375 C 97.449219 10.007812 97.148438 9.707031 96.78125 9.707031 L 93.339844 9.707031 C 92.972656 9.707031 92.671875 10.007812 92.671875 10.375 C 92.671875 10.742188 92.964844 11.042969 93.339844 11.042969 Z M 93.339844 11.042969 "/><path style=" stroke:none;fill-rule:nonzero;fill:#e44d26;fill-opacity:1;" d="M 93.339844 14.859375 L 102.660156 14.859375 C 103.027344 14.859375 103.328125 14.558594 103.328125 14.1875 C 103.328125 13.820312 103.027344 13.519531 102.660156 13.519531 L 93.339844 13.519531 C 92.972656 13.519531 92.671875 13.820312 92.671875 14.1875 C 92.671875 14.558594 92.964844 14.859375 93.339844 14.859375 Z M 93.339844 14.859375 "/><path style=" stroke:none;fill-rule:nonzero;fill:#e44d26;fill-opacity:1;" d="M 102.800781 20.042969 L 82.492188 20.042969 C 82.121094 20.042969 81.820312 20.34375 81.820312 20.710938 C 81.820312 21.078125 82.121094 21.378906 82.492188 21.378906 L 102.792969 21.378906 C 103.160156 21.378906 103.464844 21.078125 103.464844 20.710938 C 103.464844 20.34375 103.167969 20.042969 102.800781 20.042969 Z M 102.800781 20.042969 "/><path style=" stroke:none;fill-rule:nonzero;fill:#e44d26;fill-opacity:1;" d="M 102.800781 24.34375 L 82.492188 24.34375 C 82.121094 24.34375 81.820312 24.644531 81.820312 25.011719 C 81.820312 25.382812 82.121094 25.683594 82.492188 25.683594 L 102.792969 25.683594 C 103.160156 25.683594 103.464844 25.382812 103.464844 25.011719 C 103.464844 24.644531 103.167969 24.34375 102.800781 24.34375 Z M 102.800781 24.34375 "/><path style=" stroke:none;fill-rule:nonzero;fill:#e44d26;fill-opacity:1;" d="M 102.800781 28.644531 L 82.492188 28.644531 C 82.121094 28.644531 81.820312 28.945312 81.820312 29.316406 C 81.820312 29.683594 82.121094 29.984375 82.492188 29.984375 L 102.792969 29.984375 C 103.160156 29.984375 103.464844 29.683594 103.464844 29.316406 C 103.464844 28.945312 103.167969 28.644531 102.800781 28.644531 Z M 102.800781 28.644531 "/><path style=" stroke:none;fill-rule:nonzero;fill:#e44d26;fill-opacity:1;" d="M 102.800781 32.949219 L 82.492188 32.949219 C 82.121094 32.949219 81.820312 33.25 81.820312 33.617188 C 81.820312 33.984375 82.121094 34.285156 82.492188 34.285156 L 102.792969 34.285156 C 103.160156 34.285156 103.464844 33.984375 103.464844 33.617188 C 103.464844 33.25 103.167969 32.949219 102.800781 32.949219 Z M 102.800781 32.949219 "/><path style=" stroke:none;fill-rule:nonzero;fill:#e44d26;fill-opacity:1;" d="M 102.800781 37.25 L 82.492188 37.25 C 82.121094 37.25 81.820312 37.550781 81.820312 37.917969 C 81.820312 38.285156 82.121094 38.585938 82.492188 38.585938 L 102.792969 38.585938 C 103.160156 38.585938 103.464844 38.285156 103.464844 37.917969 C 103.464844 37.550781 103.167969 37.25 102.800781 37.25 Z M 102.800781 37.25 "/><g transform="matrix(1,0,0,1,2,5)"><g clip-path="url(#c6a638a170)"><g style="fill:#ffffff;fill-opacity:1;"><g transform="translate(1.181507, 14.324089)"><path style="stroke:none" d="M 3.859375 -9.140625 C 4.859375 -9.140625 5.722656 -8.953125 6.453125 -8.578125 C 7.179688 -8.210938 7.738281 -7.679688 8.125 -6.984375 C 8.519531 -6.296875 8.71875 -5.484375 8.71875 -4.546875 C 8.71875 -3.617188 8.519531 -2.8125 8.125 -2.125 C 7.738281 -1.4375 7.179688 -0.910156 6.453125 -0.546875 C 5.722656 -0.179688 4.859375 0 3.859375 0 L 1.015625 0 L 1.015625 -9.140625 Z M 3.859375 -0.984375 C 5.035156 -0.984375 5.9375 -1.296875 6.5625 -1.921875 C 7.1875 -2.546875 7.5 -3.421875 7.5 -4.546875 C 7.5 -5.691406 7.1875 -6.582031 6.5625 -7.21875 C 5.9375 -7.851562 5.035156 -8.171875 3.859375 -8.171875 L 2.203125 -8.171875 L 2.203125 -0.984375 Z M 3.859375 -0.984375 "/></g></g><g style="fill:#ffffff;fill-opacity:1;"><g transform="translate(10.460585, 14.324089)"><path style="stroke:none" d="M 4.140625 0.125 C 3.472656 0.125 2.863281 -0.0234375 2.3125 -0.328125 C 1.769531 -0.640625 1.34375 -1.078125 1.03125 -1.640625 C 0.71875 -2.210938 0.5625 -2.867188 0.5625 -3.609375 C 0.5625 -4.347656 0.71875 -5 1.03125 -5.5625 C 1.351562 -6.125 1.789062 -6.554688 2.34375 -6.859375 C 2.894531 -7.160156 3.515625 -7.3125 4.203125 -7.3125 C 4.878906 -7.3125 5.492188 -7.160156 6.046875 -6.859375 C 6.597656 -6.554688 7.03125 -6.125 7.34375 -5.5625 C 7.664062 -5 7.828125 -4.347656 7.828125 -3.609375 C 7.828125 -2.867188 7.660156 -2.210938 7.328125 -1.640625 C 7.003906 -1.078125 6.5625 -0.640625 6 -0.328125 C 5.445312 -0.0234375 4.828125 0.125 4.140625 0.125 Z M 4.140625 -0.9375 C 4.578125 -0.9375 4.984375 -1.035156 5.359375 -1.234375 C 5.734375 -1.429688 6.035156 -1.734375 6.265625 -2.140625 C 6.492188 -2.546875 6.609375 -3.035156 6.609375 -3.609375 C 6.609375 -4.179688 6.492188 -4.671875 6.265625 -5.078125 C 6.046875 -5.484375 5.75 -5.785156 5.375 -5.984375 C 5.007812 -6.179688 4.613281 -6.28125 4.1875 -6.28125 C 3.75 -6.28125 3.347656 -6.179688 2.984375 -5.984375 C 2.617188 -5.785156 2.328125 -5.484375 2.109375 -5.078125 C 1.890625 -4.671875 1.78125 -4.179688 1.78125 -3.609375 C 1.78125 -3.023438 1.882812 -2.53125 2.09375 -2.125 C 2.3125 -1.71875 2.597656 -1.414062 2.953125 -1.21875 C 3.316406 -1.03125 3.710938 -0.9375 4.140625 -0.9375 Z M 4.140625 -0.9375 "/></g></g><g style="fill:#ffffff;fill-opacity:1;"><g transform="translate(18.860312, 14.324089)"><path style="stroke:none" d="M 10.59375 -7.1875 L 8.34375 0 L 7.109375 0 L 5.375 -5.703125 L 3.65625 0 L 2.421875 0 L 0.15625 -7.1875 L 1.375 -7.1875 L 3.03125 -1.15625 L 4.8125 -7.1875 L 6.03125 -7.1875 L 7.78125 -1.140625 L 9.40625 -7.1875 Z M 10.59375 -7.1875 "/></g></g><g style="fill:#ffffff;fill-opacity:1;"><g transform="translate(29.622457, 14.324089)"><path style="stroke:none" d="M 4.515625 -7.328125 C 5.390625 -7.328125 6.097656 -7.0625 6.640625 -6.53125 C 7.179688 -6 7.453125 -5.234375 7.453125 -4.234375 L 7.453125 0 L 6.28125 0 L 6.28125 -4.0625 C 6.28125 -4.78125 6.097656 -5.328125 5.734375 -5.703125 C 5.378906 -6.085938 4.890625 -6.28125 4.265625 -6.28125 C 3.640625 -6.28125 3.140625 -6.082031 2.765625 -5.6875 C 2.390625 -5.300781 2.203125 -4.734375 2.203125 -3.984375 L 2.203125 0 L 1.015625 0 L 1.015625 -7.1875 L 2.203125 -7.1875 L 2.203125 -6.171875 C 2.441406 -6.535156 2.765625 -6.816406 3.171875 -7.015625 C 3.578125 -7.222656 4.023438 -7.328125 4.515625 -7.328125 Z M 4.515625 -7.328125 "/></g></g><g style="fill:#ffffff;fill-opacity:1;"><g transform="translate(38.022184, 14.324089)"><path style="stroke:none" d="M 2.203125 -9.71875 L 2.203125 0 L 1.015625 0 L 1.015625 -9.71875 Z M 2.203125 -9.71875 "/></g></g><g style="fill:#ffffff;fill-opacity:1;"><g transform="translate(41.250835, 14.324089)"><path style="stroke:none" d="M 4.140625 0.125 C 3.472656 0.125 2.863281 -0.0234375 2.3125 -0.328125 C 1.769531 -0.640625 1.34375 -1.078125 1.03125 -1.640625 C 0.71875 -2.210938 0.5625 -2.867188 0.5625 -3.609375 C 0.5625 -4.347656 0.71875 -5 1.03125 -5.5625 C 1.351562 -6.125 1.789062 -6.554688 2.34375 -6.859375 C 2.894531 -7.160156 3.515625 -7.3125 4.203125 -7.3125 C 4.878906 -7.3125 5.492188 -7.160156 6.046875 -6.859375 C 6.597656 -6.554688 7.03125 -6.125 7.34375 -5.5625 C 7.664062 -5 7.828125 -4.347656 7.828125 -3.609375 C 7.828125 -2.867188 7.660156 -2.210938 7.328125 -1.640625 C 7.003906 -1.078125 6.5625 -0.640625 6 -0.328125 C 5.445312 -0.0234375 4.828125 0.125 4.140625 0.125 Z M 4.140625 -0.9375 C 4.578125 -0.9375 4.984375 -1.035156 5.359375 -1.234375 C 5.734375 -1.429688 6.035156 -1.734375 6.265625 -2.140625 C 6.492188 -2.546875 6.609375 -3.035156 6.609375 -3.609375 C 6.609375 -4.179688 6.492188 -4.671875 6.265625 -5.078125 C 6.046875 -5.484375 5.75 -5.785156 5.375 -5.984375 C 5.007812 -6.179688 4.613281 -6.28125 4.1875 -6.28125 C 3.75 -6.28125 3.347656 -6.179688 2.984375 -5.984375 C 2.617188 -5.785156 2.328125 -5.484375 2.109375 -5.078125 C 1.890625 -4.671875 1.78125 -4.179688 1.78125 -3.609375 C 1.78125 -3.023438 1.882812 -2.53125 2.09375 -2.125 C 2.3125 -1.71875 2.597656 -1.414062 2.953125 -1.21875 C 3.316406 -1.03125 3.710938 -0.9375 4.140625 -0.9375 Z M 4.140625 -0.9375 "/></g></g><g style="fill:#ffffff;fill-opacity:1;"><g transform="translate(49.650562, 14.324089)"><path style="stroke:none" d="M 0.5625 -3.625 C 0.5625 -4.351562 0.707031 -4.992188 1 -5.546875 C 1.300781 -6.109375 1.710938 -6.539062 2.234375 -6.84375 C 2.753906 -7.15625 3.335938 -7.3125 3.984375 -7.3125 C 4.609375 -7.3125 5.148438 -7.175781 5.609375 -6.90625 C 6.078125 -6.632812 6.425781 -6.289062 6.65625 -5.875 L 6.65625 -7.1875 L 7.859375 -7.1875 L 7.859375 0 L 6.65625 0 L 6.65625 -1.34375 C 6.414062 -0.914062 6.0625 -0.5625 5.59375 -0.28125 C 5.125 -0.0078125 4.582031 0.125 3.96875 0.125 C 3.320312 0.125 2.738281 -0.03125 2.21875 -0.34375 C 1.707031 -0.664062 1.300781 -1.109375 1 -1.671875 C 0.707031 -2.242188 0.5625 -2.894531 0.5625 -3.625 Z M 6.65625 -3.609375 C 6.65625 -4.148438 6.546875 -4.617188 6.328125 -5.015625 C 6.109375 -5.421875 5.8125 -5.734375 5.4375 -5.953125 C 5.0625 -6.171875 4.65625 -6.28125 4.21875 -6.28125 C 3.769531 -6.28125 3.359375 -6.171875 2.984375 -5.953125 C 2.617188 -5.742188 2.328125 -5.4375 2.109375 -5.03125 C 1.890625 -4.632812 1.78125 -4.164062 1.78125 -3.625 C 1.78125 -3.070312 1.890625 -2.59375 2.109375 -2.1875 C 2.328125 -1.78125 2.617188 -1.46875 2.984375 -1.25 C 3.359375 -1.039062 3.769531 -0.9375 4.21875 -0.9375 C 4.65625 -0.9375 5.0625 -1.039062 5.4375 -1.25 C 5.8125 -1.46875 6.109375 -1.78125 6.328125 -2.1875 C 6.546875 -2.59375 6.65625 -3.066406 6.65625 -3.609375 Z M 6.65625 -3.609375 "/></g></g><g style="fill:#ffffff;fill-opacity:1;"><g transform="translate(58.522778, 14.324089)"><path style="stroke:none" d="M 0.5625 -3.625 C 0.5625 -4.351562 0.707031 -4.992188 1 -5.546875 C 1.300781 -6.109375 1.710938 -6.539062 2.234375 -6.84375 C 2.753906 -7.15625 3.335938 -7.3125 3.984375 -7.3125 C 4.546875 -7.3125 5.066406 -7.179688 5.546875 -6.921875 C 6.035156 -6.660156 6.40625 -6.320312 6.65625 -5.90625 L 6.65625 -9.71875 L 7.859375 -9.71875 L 7.859375 0 L 6.65625 0 L 6.65625 -1.359375 C 6.414062 -0.921875 6.0625 -0.5625 5.59375 -0.28125 C 5.132812 -0.0078125 4.597656 0.125 3.984375 0.125 C 3.335938 0.125 2.753906 -0.03125 2.234375 -0.34375 C 1.710938 -0.664062 1.300781 -1.109375 1 -1.671875 C 0.707031 -2.242188 0.5625 -2.894531 0.5625 -3.625 Z M 6.65625 -3.609375 C 6.65625 -4.148438 6.546875 -4.617188 6.328125 -5.015625 C 6.109375 -5.421875 5.8125 -5.734375 5.4375 -5.953125 C 5.0625 -6.171875 4.65625 -6.28125 4.21875 -6.28125 C 3.769531 -6.28125 3.359375 -6.171875 2.984375 -5.953125 C 2.617188 -5.742188 2.328125 -5.4375 2.109375 -5.03125 C 1.890625 -4.632812 1.78125 -4.164062 1.78125 -3.625 C 1.78125 -3.070312 1.890625 -2.59375 2.109375 -2.1875 C 2.328125 -1.78125 2.617188 -1.46875 2.984375 -1.25 C 3.359375 -1.039062 3.769531 -0.9375 4.21875 -0.9375 C 4.65625 -0.9375 5.0625 -1.039062 5.4375 -1.25 C 5.8125 -1.46875 6.109375 -1.78125 6.328125 -2.1875 C 6.546875 -2.59375 6.65625 -3.066406 6.65625 -3.609375 Z M 6.65625 -3.609375 "/></g></g><g style="fill:#ffffff;fill-opacity:1;"><g transform="translate(24.787893, 32.388106)"><path style="stroke:none" d="M 0.5625 -4.578125 C 0.5625 -5.472656 0.757812 -6.273438 1.15625 -6.984375 C 1.5625 -7.703125 2.113281 -8.257812 2.8125 -8.65625 C 3.507812 -9.0625 4.28125 -9.265625 5.125 -9.265625 C 6.125 -9.265625 6.992188 -9.023438 7.734375 -8.546875 C 8.484375 -8.066406 9.03125 -7.382812 9.375 -6.5 L 7.9375 -6.5 C 7.6875 -7.050781 7.320312 -7.472656 6.84375 -7.765625 C 6.363281 -8.066406 5.789062 -8.21875 5.125 -8.21875 C 4.488281 -8.21875 3.914062 -8.066406 3.40625 -7.765625 C 2.90625 -7.472656 2.507812 -7.050781 2.21875 -6.5 C 1.925781 -5.957031 1.78125 -5.316406 1.78125 -4.578125 C 1.78125 -3.847656 1.925781 -3.207031 2.21875 -2.65625 C 2.507812 -2.113281 2.90625 -1.691406 3.40625 -1.390625 C 3.914062 -1.097656 4.488281 -0.953125 5.125 -0.953125 C 5.789062 -0.953125 6.363281 -1.097656 6.84375 -1.390625 C 7.320312 -1.691406 7.6875 -2.117188 7.9375 -2.671875 L 9.375 -2.671875 C 9.03125 -1.796875 8.484375 -1.117188 7.734375 -0.640625 C 6.992188 -0.160156 6.125 0.078125 5.125 0.078125 C 4.28125 0.078125 3.507812 -0.117188 2.8125 -0.515625 C 2.113281 -0.910156 1.5625 -1.460938 1.15625 -2.171875 C 0.757812 -2.878906 0.5625 -3.679688 0.5625 -4.578125 Z M 0.5625 -4.578125 "/></g></g><g style="fill:#ffffff;fill-opacity:1;"><g transform="translate(34.920062, 32.388106)"><path style="stroke:none" d="M 8.578125 -9.140625 L 5.125 0 L 3.734375 0 L 0.28125 -9.140625 L 1.5625 -9.140625 L 4.4375 -1.265625 L 7.3125 -9.140625 Z M 8.578125 -9.140625 "/></g></g></g></g><g clip-rule="nonzero" clip-path="url(#a3cf3e1615)"><path style="fill:none;stroke-width:1;stroke-linecap:butt;stroke-linejoin:miter;stroke:#ffffff;stroke-opacity:1;stroke-miterlimit:4;" d="M 0.00176805 0.500812 L 147.001773 0.500812 " transform="matrix(0.746173,0,0,0.746173,1.604149,2.309901)"/></g><g clip-rule="nonzero" clip-path="url(#764bec035d)"><path style="fill:none;stroke-width:1;stroke-linecap:butt;stroke-linejoin:miter;stroke:#ffffff;stroke-opacity:1;stroke-miterlimit:4;" d="M -0.000926557 0.499427 L 146.999078 0.499427 " transform="matrix(0.746173,0,0,0.746173,1.156941,44.916403)"/></g><g clip-rule="nonzero" clip-path="url(#5eb10341db)"><path style="fill:none;stroke-width:1;stroke-linecap:butt;stroke-linejoin:miter;stroke:#ffffff;stroke-opacity:1;stroke-miterlimit:4;" d="M -0.000734386 0.499227 L 57.602636 0.501781 " transform="matrix(-0.00647696,0.746145,-0.746145,-0.00647696,1.974053,2.316281)"/></g><g clip-rule="nonzero" clip-path="url(#898c4a2d42)"><path style="fill:none;stroke-width:1;stroke-linecap:butt;stroke-linejoin:miter;stroke:#ffffff;stroke-opacity:1;stroke-miterlimit:4;" d="M -0.00160241 0.502214 L 57.601723 0.499533 " transform="matrix(-0.00647696,0.746145,-0.746145,-0.00647696,111.402058,2.313042)"/></g></g></svg>