<svg xmlns="http://www.w3.org/2000/svg" xmlns:xlink="http://www.w3.org/1999/xlink" width="90" zoomAndPan="magnify" viewBox="0 0 67.5 41.25" height="55" preserveAspectRatio="xMidYMid meet" version="1.2"><defs><clipPath id="26c06d5548"><path d="M 36.3125 6.082031 L 63.566406 6.082031 L 63.566406 33.335938 L 36.3125 33.335938 Z M 36.3125 6.082031 "/></clipPath><clipPath id="e1c7fca386"><path d="M 3.648438 6.082031 L 33.851562 6.082031 L 33.851562 33.335938 L 3.648438 33.335938 Z M 3.648438 6.082031 "/></clipPath></defs><g id="6c92794465"><g clip-rule="nonzero" clip-path="url(#26c06d5548)"><path style=" stroke:none;fill-rule:nonzero;fill:#e44d26;fill-opacity:1;" d="M 38.601562 33.542969 L 61.484375 33.542969 C 62.742188 33.542969 63.773438 32.511719 63.773438 31.253906 L 63.773438 8.371094 C 63.773438 7.113281 62.742188 6.082031 61.484375 6.082031 L 38.601562 6.082031 C 37.34375 6.082031 36.3125 7.113281 36.3125 8.371094 L 36.3125 31.253906 C 36.3125 32.511719 37.34375 33.542969 38.601562 33.542969 Z M 38.601562 8.371094 L 61.484375 8.371094 L 61.484375 31.253906 L 38.601562 31.253906 Z M 38.601562 8.371094 "/></g><path style=" stroke:none;fill-rule:nonzero;fill:#e44d26;fill-opacity:1;" d="M 42.035156 25.535156 L 58.054688 25.535156 L 58.054688 27.820312 L 42.035156 27.820312 Z M 42.035156 25.535156 "/><path style=" stroke:none;fill-rule:nonzero;fill:#e44d26;fill-opacity:1;" d="M 46.609375 15.234375 C 46.609375 14.601562 46.097656 14.089844 45.464844 14.089844 C 44.835938 14.089844 44.324219 14.601562 44.324219 15.234375 L 44.324219 19.8125 C 44.324219 20.441406 44.835938 20.957031 45.464844 20.957031 C 46.097656 20.957031 46.609375 20.441406 46.609375 19.8125 L 48.898438 19.8125 C 48.898438 21.707031 47.363281 23.242188 45.464844 23.242188 C 43.570312 23.242188 42.035156 21.707031 42.035156 19.8125 L 42.035156 15.234375 C 42.035156 13.339844 43.570312 11.800781 45.464844 11.800781 C 47.363281 11.800781 48.898438 13.339844 48.898438 15.234375 Z M 46.609375 15.234375 "/><path style=" stroke:none;fill-rule:nonzero;fill:#e44d26;fill-opacity:1;" d="M 55.695312 11.800781 L 58.054688 11.800781 L 55.191406 23.246094 L 52.902344 23.246094 L 50.042969 11.800781 L 52.402344 11.800781 L 54.046875 18.386719 Z M 55.695312 11.800781 "/><g clip-rule="nonzero" clip-path="url(#e1c7fca386)"><path style=" stroke:none;fill-rule:nonzero;fill:#e44d26;fill-opacity:1;" d="M 18.570312 6.082031 C 17.914062 6.082031 17.378906 6.617188 17.378906 7.277344 L 17.378906 24.113281 L 13.449219 20.164062 C 12.984375 19.695312 12.226562 19.695312 11.761719 20.160156 C 11.292969 20.625 11.292969 21.378906 11.757812 21.847656 L 17.726562 27.847656 C 17.949219 28.070312 18.253906 28.199219 18.570312 28.199219 C 18.890625 28.199219 19.195312 28.074219 19.417969 27.847656 L 25.386719 21.847656 C 25.851562 21.378906 25.847656 20.625 25.382812 20.160156 C 24.914062 19.695312 24.160156 19.699219 23.695312 20.164062 L 19.765625 24.113281 L 19.765625 7.277344 C 19.765625 6.617188 19.230469 6.082031 18.570312 6.082031 Z M 4.84375 23.992188 C 4.183594 23.992188 3.648438 24.523438 3.648438 25.183594 L 3.648438 29.960938 C 3.648438 31.933594 5.253906 33.539062 7.230469 33.539062 L 29.914062 33.539062 C 31.886719 33.539062 33.492188 31.933594 33.492188 29.960938 L 33.492188 25.183594 C 33.492188 24.523438 32.957031 23.992188 32.300781 23.992188 C 31.640625 23.992188 31.105469 24.523438 31.105469 25.183594 L 31.105469 29.960938 C 31.105469 30.617188 30.570312 31.152344 29.914062 31.152344 L 7.230469 31.152344 C 6.574219 31.152344 6.035156 30.617188 6.035156 29.960938 L 6.035156 25.183594 C 6.035156 24.523438 5.503906 23.992188 4.84375 23.992188 Z M 4.84375 23.992188 "/></g></g></svg>